<svg width="81" height="48" viewBox="0 0 81 48" fill="none" xmlns="http://www.w3.org/2000/svg">
<rect y="14" width="81" height="34" rx="8" fill="#D9D9D9"/>
<rect x="81" width="48" height="59" rx="8" transform="rotate(90 81 0)" fill="#D9D9D9"/>
<path d="M28.7772 34.0801V35H24.2596V34.0801H28.7772ZM24.4881 26.4688V35H23.3573V26.4688H24.4881ZM28.1795 30.1367V31.0566H24.2596V30.1367H28.1795ZM28.7186 26.4688V27.3945H24.2596V26.4688H28.7186ZM38.6601 26.4688V35H37.5234L33.2284 28.4199V35H32.0976V26.4688H33.2284L37.5409 33.0664V26.4688H38.6601ZM45.5605 26.4688V35H44.4473V26.4688H45.5605ZM48.3027 26.4688V27.3945H41.7109V26.4688H48.3027ZM56.9083 34.0801V35H52.3907V34.0801H56.9083ZM52.6192 26.4688V35H51.4884V26.4688H52.6192ZM56.3106 30.1367V31.0566H52.3907V30.1367H56.3106ZM56.8497 26.4688V27.3945H52.3907V26.4688H56.8497ZM60.2287 26.4688H63.0529C63.6935 26.4688 64.2345 26.5664 64.6759 26.7617C65.1213 26.957 65.4591 27.2461 65.6896 27.6289C65.924 28.0078 66.0412 28.4746 66.0412 29.0293C66.0412 29.4199 65.9611 29.7773 65.8009 30.1016C65.6447 30.4219 65.4181 30.6953 65.1213 30.9219C64.8283 31.1445 64.4767 31.3105 64.0666 31.4199L63.7502 31.543H61.0959L61.0841 30.623H63.088C63.4943 30.623 63.8322 30.5527 64.1017 30.4121C64.3713 30.2676 64.5744 30.0742 64.7111 29.832C64.8478 29.5898 64.9162 29.3223 64.9162 29.0293C64.9162 28.7012 64.8517 28.4141 64.7228 28.168C64.5939 27.9219 64.3908 27.7324 64.1134 27.5996C63.84 27.4629 63.4865 27.3945 63.0529 27.3945H61.3595V35H60.2287V26.4688ZM65.215 35L63.1408 31.1328L64.3185 31.127L66.422 34.9297V35H65.215Z" fill="black"/>
</svg>
